<mxfile host="app.diagrams.net" agent="Mozilla/5.0 (Windows NT 10.0; Win64; x64) AppleWebKit/537.36 (KHTML, like Gecko) Chrome/129.0.0.0 Safari/537.36" version="24.7.17">
  <diagram name="Page-1" id="b0hGt-wQmwd_dEZKPCWD">
    <mxGraphModel dx="1050" dy="603" grid="1" gridSize="10" guides="1" tooltips="1" connect="1" arrows="1" fold="1" page="1" pageScale="1" pageWidth="850" pageHeight="1100" math="0" shadow="0">
      <root>
        <mxCell id="0" />
        <mxCell id="1" parent="0" />
        <mxCell id="UmW6LuuBsSSZ4sUkFar3-1" style="edgeStyle=orthogonalEdgeStyle;rounded=0;orthogonalLoop=1;jettySize=auto;html=1;entryX=0.5;entryY=0;entryDx=0;entryDy=0;fillColor=#d5e8d4;strokeColor=#82b366;" edge="1" parent="1" source="UmW6LuuBsSSZ4sUkFar3-2" target="UmW6LuuBsSSZ4sUkFar3-4">
          <mxGeometry relative="1" as="geometry">
            <Array as="points">
              <mxPoint x="435" y="240" />
              <mxPoint x="435" y="240" />
            </Array>
          </mxGeometry>
        </mxCell>
        <mxCell id="UmW6LuuBsSSZ4sUkFar3-2" value="Awal" style="strokeWidth=2;html=1;shape=mxgraph.flowchart.terminator;whiteSpace=wrap;fillColor=#d5e8d4;strokeColor=#82b366;" vertex="1" parent="1">
          <mxGeometry x="387" y="170" width="100" height="60" as="geometry" />
        </mxCell>
        <mxCell id="UmW6LuuBsSSZ4sUkFar3-3" style="edgeStyle=orthogonalEdgeStyle;rounded=0;orthogonalLoop=1;jettySize=auto;html=1;entryX=0.5;entryY=0;entryDx=0;entryDy=0;fillColor=#dae8fc;strokeColor=#6c8ebf;" edge="1" parent="1" source="UmW6LuuBsSSZ4sUkFar3-4" target="UmW6LuuBsSSZ4sUkFar3-26">
          <mxGeometry relative="1" as="geometry" />
        </mxCell>
        <mxCell id="UmW6LuuBsSSZ4sUkFar3-4" value="Membuka Halaman Website Pembelian Belanja" style="rounded=1;whiteSpace=wrap;html=1;absoluteArcSize=1;arcSize=14;strokeWidth=2;fillColor=#dae8fc;strokeColor=#6c8ebf;" vertex="1" parent="1">
          <mxGeometry x="385" y="270" width="100" height="100" as="geometry" />
        </mxCell>
        <mxCell id="UmW6LuuBsSSZ4sUkFar3-5" style="edgeStyle=orthogonalEdgeStyle;rounded=0;orthogonalLoop=1;jettySize=auto;html=1;fillColor=#e1d5e7;strokeColor=#9673a6;" edge="1" parent="1" source="UmW6LuuBsSSZ4sUkFar3-7">
          <mxGeometry relative="1" as="geometry">
            <mxPoint x="200" y="640" as="targetPoint" />
          </mxGeometry>
        </mxCell>
        <mxCell id="UmW6LuuBsSSZ4sUkFar3-6" style="edgeStyle=orthogonalEdgeStyle;rounded=0;orthogonalLoop=1;jettySize=auto;html=1;fillColor=#e1d5e7;strokeColor=#9673a6;" edge="1" parent="1" source="UmW6LuuBsSSZ4sUkFar3-7">
          <mxGeometry relative="1" as="geometry">
            <mxPoint x="680" y="640" as="targetPoint" />
          </mxGeometry>
        </mxCell>
        <mxCell id="UmW6LuuBsSSZ4sUkFar3-7" value="Status" style="strokeWidth=2;html=1;shape=mxgraph.flowchart.decision;whiteSpace=wrap;fillColor=#e1d5e7;strokeColor=#9673a6;" vertex="1" parent="1">
          <mxGeometry x="385" y="496" width="100" height="100" as="geometry" />
        </mxCell>
        <mxCell id="UmW6LuuBsSSZ4sUkFar3-8" value="Non-Member" style="text;html=1;align=center;verticalAlign=middle;whiteSpace=wrap;rounded=0;fillColor=none;" vertex="1" parent="1">
          <mxGeometry x="510" y="520" width="80" height="30" as="geometry" />
        </mxCell>
        <mxCell id="UmW6LuuBsSSZ4sUkFar3-9" value="Member" style="text;html=1;align=center;verticalAlign=middle;whiteSpace=wrap;rounded=0;fillColor=none;" vertex="1" parent="1">
          <mxGeometry x="280" y="520" width="60" height="30" as="geometry" />
        </mxCell>
        <mxCell id="UmW6LuuBsSSZ4sUkFar3-10" style="edgeStyle=orthogonalEdgeStyle;rounded=0;orthogonalLoop=1;jettySize=auto;html=1;entryX=0.5;entryY=0;entryDx=0;entryDy=0;exitX=1;exitY=0.5;exitDx=0;exitDy=0;exitPerimeter=0;fillColor=#e1d5e7;strokeColor=#9673a6;" edge="1" parent="1" source="UmW6LuuBsSSZ4sUkFar3-12" target="UmW6LuuBsSSZ4sUkFar3-17">
          <mxGeometry relative="1" as="geometry">
            <mxPoint x="800" y="750" as="targetPoint" />
            <Array as="points">
              <mxPoint x="780" y="690" />
            </Array>
          </mxGeometry>
        </mxCell>
        <mxCell id="UmW6LuuBsSSZ4sUkFar3-11" style="edgeStyle=orthogonalEdgeStyle;rounded=0;orthogonalLoop=1;jettySize=auto;html=1;entryX=0.5;entryY=0;entryDx=0;entryDy=0;fillColor=#e1d5e7;strokeColor=#9673a6;" edge="1" parent="1" source="UmW6LuuBsSSZ4sUkFar3-12" target="UmW6LuuBsSSZ4sUkFar3-18">
          <mxGeometry relative="1" as="geometry">
            <mxPoint x="570" y="750" as="targetPoint" />
            <Array as="points">
              <mxPoint x="580" y="690" />
            </Array>
          </mxGeometry>
        </mxCell>
        <mxCell id="UmW6LuuBsSSZ4sUkFar3-12" value="&lt;div&gt;Pembayaran&lt;/div&gt;Non-Member" style="strokeWidth=2;html=1;shape=mxgraph.flowchart.decision;whiteSpace=wrap;fillColor=#e1d5e7;strokeColor=#9673a6;" vertex="1" parent="1">
          <mxGeometry x="630" y="640" width="100" height="100" as="geometry" />
        </mxCell>
        <mxCell id="UmW6LuuBsSSZ4sUkFar3-13" style="edgeStyle=orthogonalEdgeStyle;rounded=0;orthogonalLoop=1;jettySize=auto;html=1;fillColor=#e1d5e7;strokeColor=#9673a6;" edge="1" parent="1" source="UmW6LuuBsSSZ4sUkFar3-15" target="UmW6LuuBsSSZ4sUkFar3-20">
          <mxGeometry relative="1" as="geometry" />
        </mxCell>
        <mxCell id="UmW6LuuBsSSZ4sUkFar3-14" style="edgeStyle=orthogonalEdgeStyle;rounded=0;orthogonalLoop=1;jettySize=auto;html=1;entryX=0.5;entryY=0;entryDx=0;entryDy=0;fillColor=#e1d5e7;strokeColor=#9673a6;" edge="1" parent="1" source="UmW6LuuBsSSZ4sUkFar3-15" target="UmW6LuuBsSSZ4sUkFar3-22">
          <mxGeometry relative="1" as="geometry" />
        </mxCell>
        <mxCell id="UmW6LuuBsSSZ4sUkFar3-15" value="Pembayaran Member&lt;div&gt;&lt;/div&gt;" style="strokeWidth=2;html=1;shape=mxgraph.flowchart.decision;whiteSpace=wrap;fillColor=#e1d5e7;strokeColor=#9673a6;" vertex="1" parent="1">
          <mxGeometry x="150.5" y="640" width="100" height="100" as="geometry" />
        </mxCell>
        <mxCell id="UmW6LuuBsSSZ4sUkFar3-16" style="edgeStyle=orthogonalEdgeStyle;rounded=0;orthogonalLoop=1;jettySize=auto;html=1;entryX=1;entryY=0.75;entryDx=0;entryDy=0;fillColor=#dae8fc;strokeColor=#6c8ebf;" edge="1" parent="1" source="UmW6LuuBsSSZ4sUkFar3-17" target="UmW6LuuBsSSZ4sUkFar3-25">
          <mxGeometry relative="1" as="geometry">
            <mxPoint x="915" y="960" as="targetPoint" />
            <Array as="points">
              <mxPoint x="780" y="1000" />
            </Array>
          </mxGeometry>
        </mxCell>
        <mxCell id="UmW6LuuBsSSZ4sUkFar3-17" value="Diskon 10%&lt;div&gt;Pembelian Diatas&lt;/div&gt;&lt;div&gt;500.000&lt;/div&gt;" style="rounded=1;whiteSpace=wrap;html=1;absoluteArcSize=1;arcSize=14;strokeWidth=2;fillColor=#dae8fc;strokeColor=#6c8ebf;" vertex="1" parent="1">
          <mxGeometry x="730" y="760" width="100" height="100" as="geometry" />
        </mxCell>
        <mxCell id="UmW6LuuBsSSZ4sUkFar3-18" value="&lt;div&gt;Tidak Mendapat Diskon Pembelian dibawah&lt;/div&gt;&lt;div&gt;500.000&lt;/div&gt;" style="rounded=1;whiteSpace=wrap;html=1;absoluteArcSize=1;arcSize=14;strokeWidth=2;fillColor=#dae8fc;strokeColor=#6c8ebf;" vertex="1" parent="1">
          <mxGeometry x="530" y="760" width="100" height="100" as="geometry" />
        </mxCell>
        <mxCell id="UmW6LuuBsSSZ4sUkFar3-19" style="edgeStyle=orthogonalEdgeStyle;rounded=0;orthogonalLoop=1;jettySize=auto;html=1;entryX=0.566;entryY=0.01;entryDx=0;entryDy=0;fillColor=#dae8fc;strokeColor=#6c8ebf;exitX=1;exitY=0.5;exitDx=0;exitDy=0;entryPerimeter=0;" edge="1" parent="1" source="UmW6LuuBsSSZ4sUkFar3-23" target="UmW6LuuBsSSZ4sUkFar3-25">
          <mxGeometry relative="1" as="geometry">
            <Array as="points">
              <mxPoint x="422" y="810" />
            </Array>
          </mxGeometry>
        </mxCell>
        <mxCell id="UmW6LuuBsSSZ4sUkFar3-32" style="edgeStyle=orthogonalEdgeStyle;rounded=0;orthogonalLoop=1;jettySize=auto;html=1;exitX=0.5;exitY=1;exitDx=0;exitDy=0;entryX=0;entryY=0.75;entryDx=0;entryDy=0;fillColor=#dae8fc;strokeColor=#6c8ebf;" edge="1" parent="1" source="UmW6LuuBsSSZ4sUkFar3-20" target="UmW6LuuBsSSZ4sUkFar3-25">
          <mxGeometry relative="1" as="geometry">
            <Array as="points">
              <mxPoint x="61" y="1003" />
            </Array>
          </mxGeometry>
        </mxCell>
        <mxCell id="UmW6LuuBsSSZ4sUkFar3-20" value="Diskon 20%&lt;span style=&quot;background-color: initial;&quot;&gt;&amp;nbsp;diatas&lt;/span&gt;&lt;div&gt;500.000&lt;/div&gt;" style="rounded=1;whiteSpace=wrap;html=1;absoluteArcSize=1;arcSize=14;strokeWidth=2;fillColor=#dae8fc;strokeColor=#6c8ebf;" vertex="1" parent="1">
          <mxGeometry x="10.5" y="760" width="100" height="100" as="geometry" />
        </mxCell>
        <mxCell id="UmW6LuuBsSSZ4sUkFar3-21" style="edgeStyle=orthogonalEdgeStyle;rounded=0;orthogonalLoop=1;jettySize=auto;html=1;entryX=0;entryY=0.25;entryDx=0;entryDy=0;fillColor=#dae8fc;strokeColor=#6c8ebf;" edge="1" parent="1" target="UmW6LuuBsSSZ4sUkFar3-25">
          <mxGeometry relative="1" as="geometry">
            <mxPoint x="200.5" y="860" as="sourcePoint" />
            <mxPoint x="0.5" y="960" as="targetPoint" />
            <Array as="points">
              <mxPoint x="201" y="920" />
              <mxPoint x="330" y="920" />
              <mxPoint x="330" y="980" />
            </Array>
          </mxGeometry>
        </mxCell>
        <mxCell id="UmW6LuuBsSSZ4sUkFar3-22" value="Diskon 15%&amp;nbsp;&lt;span style=&quot;background-color: initial;&quot;&gt;diatas&lt;/span&gt;&lt;div&gt;300.000&lt;/div&gt;" style="rounded=1;whiteSpace=wrap;html=1;absoluteArcSize=1;arcSize=14;strokeWidth=2;fillColor=#dae8fc;strokeColor=#6c8ebf;" vertex="1" parent="1">
          <mxGeometry x="150.5" y="760" width="100" height="100" as="geometry" />
        </mxCell>
        <mxCell id="UmW6LuuBsSSZ4sUkFar3-23" value="Diskon 10%&lt;div&gt;Member&lt;/div&gt;" style="rounded=1;whiteSpace=wrap;html=1;absoluteArcSize=1;arcSize=14;strokeWidth=2;fillColor=#dae8fc;strokeColor=#6c8ebf;" vertex="1" parent="1">
          <mxGeometry x="290.5" y="760" width="100" height="100" as="geometry" />
        </mxCell>
        <mxCell id="UmW6LuuBsSSZ4sUkFar3-24" style="edgeStyle=orthogonalEdgeStyle;rounded=0;orthogonalLoop=1;jettySize=auto;html=1;fillColor=#ffe6cc;strokeColor=#d79b00;" edge="1" parent="1" source="UmW6LuuBsSSZ4sUkFar3-25" target="UmW6LuuBsSSZ4sUkFar3-31">
          <mxGeometry relative="1" as="geometry">
            <Array as="points">
              <mxPoint x="410" y="1040" />
              <mxPoint x="410" y="1040" />
            </Array>
          </mxGeometry>
        </mxCell>
        <mxCell id="UmW6LuuBsSSZ4sUkFar3-25" value="Total Pembayaran" style="shape=parallelogram;html=1;strokeWidth=2;perimeter=parallelogramPerimeter;whiteSpace=wrap;rounded=1;arcSize=12;size=0.23;fillColor=#ffe6cc;strokeColor=#d79b00;" vertex="1" parent="1">
          <mxGeometry x="340" y="960" width="145" height="60" as="geometry" />
        </mxCell>
        <mxCell id="UmW6LuuBsSSZ4sUkFar3-26" value="&lt;span style=&quot;font-size: 11px;&quot;&gt;Mengisi Nominal Pembayaran&amp;nbsp;&lt;/span&gt;" style="shape=parallelogram;html=1;strokeWidth=2;perimeter=parallelogramPerimeter;whiteSpace=wrap;rounded=1;arcSize=12;size=0.23;fillColor=#ffe6cc;strokeColor=#d79b00;" vertex="1" parent="1">
          <mxGeometry x="365" y="400" width="140" height="60" as="geometry" />
        </mxCell>
        <mxCell id="UmW6LuuBsSSZ4sUkFar3-27" style="edgeStyle=orthogonalEdgeStyle;rounded=0;orthogonalLoop=1;jettySize=auto;html=1;entryX=0.501;entryY=0.014;entryDx=0;entryDy=0;entryPerimeter=0;fillColor=#ffe6cc;strokeColor=#d79b00;" edge="1" parent="1" source="UmW6LuuBsSSZ4sUkFar3-26" target="UmW6LuuBsSSZ4sUkFar3-7">
          <mxGeometry relative="1" as="geometry" />
        </mxCell>
        <mxCell id="UmW6LuuBsSSZ4sUkFar3-28" style="edgeStyle=orthogonalEdgeStyle;rounded=0;orthogonalLoop=1;jettySize=auto;html=1;entryX=0.609;entryY=-0.009;entryDx=0;entryDy=0;entryPerimeter=0;fillColor=#e1d5e7;strokeColor=#9673a6;" edge="1" parent="1" source="UmW6LuuBsSSZ4sUkFar3-15" target="UmW6LuuBsSSZ4sUkFar3-23">
          <mxGeometry relative="1" as="geometry" />
        </mxCell>
        <mxCell id="UmW6LuuBsSSZ4sUkFar3-30" style="edgeStyle=orthogonalEdgeStyle;rounded=0;orthogonalLoop=1;jettySize=auto;html=1;entryX=1;entryY=0.25;entryDx=0;entryDy=0;fillColor=#dae8fc;strokeColor=#6c8ebf;" edge="1" parent="1" source="UmW6LuuBsSSZ4sUkFar3-18" target="UmW6LuuBsSSZ4sUkFar3-25">
          <mxGeometry relative="1" as="geometry">
            <Array as="points">
              <mxPoint x="580" y="977" />
            </Array>
            <mxPoint x="500" y="970" as="targetPoint" />
          </mxGeometry>
        </mxCell>
        <mxCell id="UmW6LuuBsSSZ4sUkFar3-31" value="Akhir" style="strokeWidth=2;html=1;shape=mxgraph.flowchart.terminator;whiteSpace=wrap;fillColor=#f8cecc;strokeColor=#b85450;" vertex="1" parent="1">
          <mxGeometry x="360" y="1070" width="100" height="60" as="geometry" />
        </mxCell>
      </root>
    </mxGraphModel>
  </diagram>
</mxfile>
